<?xml version="1.0" encoding="UTF-8" standalone="no"?>
<!-- Created with Inkscape (http://www.inkscape.org/) -->

<svg
   width="21.147202mm"
   height="13.031204mm"
   viewBox="0 0 21.147202 13.031204"
   version="1.1"
   id="svg5"
   xml:space="preserve"
   xmlns:inkscape="http://www.inkscape.org/namespaces/inkscape"
   xmlns:sodipodi="http://sodipodi.sourceforge.net/DTD/sodipodi-0.dtd"
   xmlns="http://www.w3.org/2000/svg"
   xmlns:svg="http://www.w3.org/2000/svg"><sodipodi:namedview
     id="namedview7"
     pagecolor="#ffffff"
     bordercolor="#000000"
     borderopacity="0.25"
     inkscape:showpageshadow="2"
     inkscape:pageopacity="0.0"
     inkscape:pagecheckerboard="0"
     inkscape:deskcolor="#d1d1d1"
     inkscape:document-units="mm"
     showgrid="false" /><defs
     id="defs2"><clipPath
       clipPathUnits="userSpaceOnUse"
       id="clipPath368"><rect
         style="fill:#000000;fill-opacity:0.261539;stroke-width:0.582701"
         id="rect370"
         width="80.566849"
         height="50.100391"
         x="9.5735912"
         y="25.085218" /></clipPath></defs><g
     inkscape:label="Ebene 1"
     inkscape:groupmode="layer"
     id="layer1"
     transform="translate(-72.548242,-125.7957)"><g
       id="g150"
       transform="matrix(0.26458333,0,0,0.26458333,70.015232,118.93404)"
       clip-path="url(#clipPath368)"
       inkscape:export-filename="back.png"
       inkscape:export-xdpi="96"
       inkscape:export-ydpi="96"><g
         id="g134"><path
           d="m 89.5,49.8 c 0,1.6 -1.3,2.9 -2.9,2.9 L 20.7,52.5 38.9,69.1 c 1.2,1.1 1.3,2.9 0.2,4.1 -0.6,0.6 -1.4,1 -2.1,1 -0.7,0 -1.4,-0.3 -2,-0.8 L 11.5,51.9 c -0.6,-0.5 -0.9,-1.3 -0.9,-2.1 0,-0.8 0.4,-1.6 1,-2.1 l 23.5,-21 c 1.2,-1.1 3,-1 4.1,0.2 1.1,1.2 1,3 -0.2,4.1 l -17.8,15.7 65.3,0.2 c 1.7,0 3,1.3 3,2.9 z"
           id="path132" /></g><text
         x="0"
         y="115"
         fill="#000000"
         font-size="5px"
         font-weight="bold"
         font-family="'Helvetica Neue', Helvetica, Arial-Unicode, Arial, Sans-serif"
         id="text136">Created by Shiva</text><text
         x="0"
         y="120"
         fill="#000000"
         font-size="5px"
         font-weight="bold"
         font-family="'Helvetica Neue', Helvetica, Arial-Unicode, Arial, Sans-serif"
         id="text138">from the Noun Project</text></g></g></svg>
