<svg xmlns="http://www.w3.org/2000/svg" xmlns:xlink="http://www.w3.org/1999/xlink" version="1.1" x="0px" y="0px" viewBox="0 0 100 125" style="enable-background:new 0 0 100 100;" xml:space="preserve"><g><path d="M89.5,49.8c0,1.6-1.3,2.9-2.9,2.9l-65.9-0.2l18.2,16.6c1.2,1.1,1.3,2.9,0.2,4.1c-0.6,0.6-1.4,1-2.1,1c-0.7,0-1.4-0.3-2-0.8   L11.5,51.9c-0.6-0.5-0.9-1.3-0.9-2.1c0-0.8,0.4-1.6,1-2.1l23.5-21c1.2-1.1,3-1,4.1,0.2c1.1,1.2,1,3-0.2,4.1L21.2,46.7l65.3,0.2   C88.2,46.9,89.5,48.2,89.5,49.8z"/></g><text x="0" y="115" fill="#000000" font-size="5px" font-weight="bold" font-family="'Helvetica Neue', Helvetica, Arial-Unicode, Arial, Sans-serif">Created by Shiva</text><text x="0" y="120" fill="#000000" font-size="5px" font-weight="bold" font-family="'Helvetica Neue', Helvetica, Arial-Unicode, Arial, Sans-serif">from the Noun Project</text></svg>